<svg viewBox="0 0 271 258" fill="none" xmlns="http://www.w3.org/2000/svg">
<path fill-rule="evenodd" clip-rule="evenodd" d="M139.621 21.0146L141.5 21.5L143 22L143.526 22.3936L149.271 25.0742L149.32 25.1162L152.32 27.6162L152.355 27.6445L152.384 27.6797L154.918 30.7207L154.942 30.7666L169.442 58.2666L169.446 58.2744L169.449 58.2812L178.437 76.7568C192.185 100.256 197.223 112.691 198.74 120.277C199.502 124.088 199.378 126.68 199.024 128.831C198.85 129.894 198.619 130.855 198.423 131.766C198.225 132.684 198.059 133.569 197.999 134.531L197.992 134.641L197.94 134.737L194.44 141.237L194.411 141.292L194.368 141.338L188.892 147.312L184.455 153.72L181.994 161.594L181.502 168.482L182.484 175.36L187.958 187.799L188.052 188.014L187.947 188.224L185.975 192.168L185.014 196.492L185.972 200.326L187.894 204.17L191.719 207.039L195.538 207.993L200.392 207.509L204.673 206.081L208 200.854V193.126L204.639 186.885L199.392 184.5H193.713L190.027 178.182L188 168.552V161.403L188.036 161.314L190.036 156.314L190.062 156.25L195.104 149.695L195.109 149.688L195.116 149.68L200.089 143.711L203.498 137.807L205.216 131.393C205.217 131.385 205.217 131.377 205.219 131.369C205.228 131.322 205.252 131.231 205.322 131.142C205.406 131.035 205.537 130.955 205.695 130.944C205.83 130.935 205.933 130.981 205.983 131.008C206.079 131.059 206.144 131.131 206.171 131.162C206.207 131.204 206.242 131.251 206.272 131.295C206.391 131.467 206.549 131.746 206.728 132.086C207.092 132.778 207.592 133.812 208.144 134.987C209.245 137.334 210.564 140.275 211.447 142.276L222.445 164.273L235.945 190.773L235.955 190.793L238.455 196.293L238.473 196.331L238.483 196.37L239.688 200.87L239.706 200.935V213.1L239.667 213.192L236.962 219.692L236.949 219.722L236.933 219.75L233.758 225.25L233.725 225.307L229.146 229.886L229.107 229.912L223.283 233.912L223.237 233.943L223.186 233.964L218.186 235.964L218.154 235.977L218.121 235.985L214.082 236.995L214.042 236.998L208.042 237.498L208.021 237.5H203.469L203.438 237.496L199.438 236.996L199.374 236.988L199.314 236.964L194.314 234.964L194.274 234.948L194.238 234.926L187.738 230.926L187.688 230.896L187.646 230.854L181.1 224.307L181.067 224.25L176.737 216.75L176.729 216.735L176.721 216.721L172.561 208.241L169.102 202.806L164.653 197.863L160.215 194.411L154.773 190.948L150.844 189.475L146.432 188.215L154.668 181.625L163.604 172.688L169.057 163.765L172.03 157.322L174.02 150.362L175.507 144.905L176.003 139.95V139.944L176.535 135.155L176.803 135.04L180.215 133.577L182.125 131.668L184.098 129.202L186 126.349V119.618L185.073 117.765L182.138 113.851L179.743 111.936L177.404 111H171.569L168.2 111.962L165.842 113.377L164.413 115.282L162.94 117.737L162 119.618V125.938L162.464 127.795L163.406 129.208L164.861 131.148L167.298 133.098L168.751 134.066L169.724 134.553L170 134.691V140.541L169.493 143.582L169.492 143.59L169.49 143.598L168.49 148.598L168.484 148.629L166.975 153.158L166.967 153.181L166.957 153.203L164.957 157.703L164.952 157.714L162.438 162.741L162.429 162.757L159.411 167.786L159.391 167.812L155.391 172.812L155.365 172.845L155.335 172.872L150.335 177.372L150.315 177.389L144.794 181.404L144.768 181.424L144.739 181.438L139.239 184.438L139.188 184.467L139.132 184.482L133.632 185.982L133.604 185.99L133.576 185.994L127.11 186.988L120.676 188.969L114.719 191.45L108.785 194.912L103.359 199.351L99.9189 203.774L95.9385 210.741L93.957 214.703L91.957 219.203L91.9395 219.242L89.916 222.277L87.4238 226.265L87.4082 226.29L87.3906 226.312L85.3906 228.812L85.3418 228.873L79.251 232.934L73.1748 235.972L73.1211 235.985L69.1094 236.988L69.0977 236.99L66.5977 237.49L66.5498 237.5H57.959L54.918 236.993L54.8984 236.99L50.8789 235.985L50.8252 235.972L45.7764 233.447L45.7246 233.421L45.6797 233.384L39.6797 228.384L39.6475 228.357L39.6201 228.325L36.6201 224.825L36.5898 224.789L36.5654 224.748L34.5654 221.248L34.5537 221.227L34.543 221.203L32.543 216.703L32.5332 216.681L32.5254 216.658L31.5156 213.629L31.5098 213.598L31.0098 211.098L31 211.05V200.43L31.0195 200.362L32.0195 196.862L32.0244 196.844L32.0322 196.824L33.5322 192.824L33.541 192.8L35.5664 188.749L37.584 185.723L37.6006 185.697L37.6201 185.675L40.6201 182.175L43.1162 179.18L43.1406 179.149L43.1709 179.124L47.1709 175.624L47.1846 175.611L51.2002 172.6L51.2109 172.592L55.7227 169.584L55.7324 169.577L55.7432 169.571L60.7432 166.571L60.7588 166.562L65.792 164.045L65.8076 164.038L71.8076 161.538L71.8242 161.531L77.8418 159.525L77.8662 159.518L77.8916 159.512L82.3916 158.512L82.4014 158.51L82.4102 158.508L87.9102 157.508L87.9238 157.506L94.4619 156.5H105.809L104.947 158.224L104.873 158.373L104.724 158.447L102.751 159.434L101.277 160.416L101.261 160.428L96.7432 162.938L92.791 165.407L89.3213 167.885L80.3799 176.827L78.75 179H71.1035L67.7842 180.422L65.3691 182.838L62.9336 185.76L62 188.095V194.861L63.4131 197.217L64.8799 199.173L67.3105 201.604L69.708 203.042L71.082 203.5H76.918L78.292 203.042L80.7285 201.58L82.1504 200.632L83.5938 198.708L84.5557 197.264L85.5264 194.839L86 193.418V188.062L85.5352 186.204L84.6113 184.818L83.3564 183.563L86.6113 178.682L89.6582 175.635L89.6709 175.624L93.6709 172.124L93.6914 172.105L93.7129 172.091L98.7129 168.591L98.7275 168.58L98.7432 168.571L103.743 165.571L103.769 165.556L103.797 165.543L112.797 161.543L112.833 161.527L112.871 161.517L120.371 159.517L120.395 159.511L126.418 158.507L126.428 158.505L126.438 158.504L134.406 157.508L140.295 156.035L144.682 153.111L147.62 150.173L150.577 146.229L153 141.869V134.106L151.043 129.703L151.04 129.697L148.043 122.704L144.559 115.735L111.063 55.7441L111.031 55.6855L111.015 55.6211L110.559 53.7988C110.483 53.7163 110.436 53.6234 110.405 53.5527C110.342 53.4076 110.298 53.2278 110.263 53.0479C110.191 52.6793 110.139 52.1868 110.102 51.6611C110.098 51.6124 110.096 51.5632 110.093 51.5137L110.01 51.0977L110.067 51.0859C110.019 50.1709 110 49.1919 110 48.5V42.4385L110.015 42.3789L111.015 38.3789L111.025 38.3369L111.043 38.2969L113.043 33.7969L113.063 33.751L113.093 33.709L115.593 30.209L115.617 30.1758L118.672 27.1211L118.7 27.0996L122.7 24.0996L122.736 24.0732L122.776 24.0527L125.776 22.5527L125.818 22.5322L125.862 22.5195L129.362 21.5195L129.371 21.5166L131.379 21.0146L131.438 21H139.562L139.621 21.0146Z" fill="url(#paint0)"/>
<path d="M131.564 105.492L109.308 149.5H100.035L90.0771 150.993L80.6035 152.489L70.1621 155.473L61.7197 158.949L55.2373 162.44L46.7607 167.603L46.4463 168.226L45.5537 167.774L103.486 53.4209L131.564 105.492Z" fill="url(#paint1)"/>
<defs>
<linearGradient id="paint0" x1="135.353" y1="21" x2="135.353" y2="237.5" gradientUnits="userSpaceOnUse">
<stop stop-color="#A838C2"/>
<stop offset="0.5" stop-color="#6753D1"/>
<stop offset="1" stop-color="#1E62D1"/>
</linearGradient>
<linearGradient id="paint1" x1="135.353" y1="21" x2="135.353" y2="237.5" gradientUnits="userSpaceOnUse">
<stop stop-color="#A838C2"/>
<stop offset="0.5" stop-color="#6753D1"/>
<stop offset="1" stop-color="#1E62D1"/>
</linearGradient>
</defs>
</svg>
